<?xml version="1.0" encoding="UTF-8" standalone="no"?>
<svg
   xmlns:dc="http://purl.org/dc/elements/1.1/"
   xmlns:cc="http://creativecommons.org/ns#"
   xmlns:rdf="http://www.w3.org/1999/02/22-rdf-syntax-ns#"
   xmlns:svg="http://www.w3.org/2000/svg"
   xmlns="http://www.w3.org/2000/svg"
   xmlns:sodipodi="http://sodipodi.sourceforge.net/DTD/sodipodi-0.dtd"
   xmlns:inkscape="http://www.inkscape.org/namespaces/inkscape"
   width="1052.3622"
   height="744.09448"
   viewBox="0 0 841.88975 595.27559"
   version="1.1"
   id="svg2"
   inkscape:version="0.48.1 "
   sodipodi:docname="OpenCallVisual - mk.svg">
  <metadata
     id="metadata119">
    <rdf:RDF>
      <cc:Work
         rdf:about="">
        <dc:format>image/svg+xml</dc:format>
        <dc:type
           rdf:resource="http://purl.org/dc/dcmitype/StillImage" />
        <dc:title></dc:title>
      </cc:Work>
    </rdf:RDF>
  </metadata>
  <defs
     id="defs117">
    <inkscape:perspective
       sodipodi:type="inkscape:persp3d"
       inkscape:vp_x="0 : 493.75 : 1"
       inkscape:vp_y="0 : 1000 : 0"
       inkscape:vp_z="1482.5 : 493.75 : 1"
       inkscape:persp3d-origin="741.25 : 329.16667 : 1"
       id="perspective121" />
    <inkscape:perspective
       id="perspective2879"
       inkscape:persp3d-origin="0.5 : 0.33333333 : 1"
       inkscape:vp_z="1 : 0.5 : 1"
       inkscape:vp_y="0 : 1000 : 0"
       inkscape:vp_x="0 : 0.5 : 1"
       sodipodi:type="inkscape:persp3d" />
    <inkscape:perspective
       id="perspective2879-7"
       inkscape:persp3d-origin="0.5 : 0.33333333 : 1"
       inkscape:vp_z="1 : 0.5 : 1"
       inkscape:vp_y="0 : 1000 : 0"
       inkscape:vp_x="0 : 0.5 : 1"
       sodipodi:type="inkscape:persp3d" />
  </defs>
  <sodipodi:namedview
     pagecolor="#ffffff"
     bordercolor="#666666"
     borderopacity="1"
     objecttolerance="10"
     gridtolerance="10"
     guidetolerance="10"
     inkscape:pageopacity="0"
     inkscape:pageshadow="2"
     inkscape:window-width="1083"
     inkscape:window-height="748"
     id="namedview115"
     showgrid="false"
     inkscape:zoom="0.47595004"
     inkscape:cx="371.92692"
     inkscape:cy="333.342"
     inkscape:window-x="1672"
     inkscape:window-y="-8"
     inkscape:window-maximized="1"
     inkscape:current-layer="#77a2d9ff" />
  <g
     id="#ffffffff"
     transform="matrix(0.68476978,0,0,0.68476978,-4.1469552,26.59789)">
    <path
       d="m 906.85,245.7 c 2.03,-4.38 4.46,-8.55 6.8,-12.77 2.09,4.3 4.8,8.28 6.58,12.74 -4.46,0 -8.92,-0.01 -13.38,0.03 z"
       id="path5"
       style="fill:#ffffff"
       inkscape:connector-curvature="0" />
    <path
       d="m 463.93,251.72 c 2.09,-4.28 4.31,-8.5 6.86,-12.53 2.12,4.18 4.72,8.11 6.46,12.47 -4.44,0 -8.88,-0.01 -13.32,0.06 z"
       id="path7"
       style="fill:#ffffff"
       inkscape:connector-curvature="0" />
    <path
       d="m 487.11,251.73 c 2.23,-4.21 4.38,-8.46 6.88,-12.51 2.34,4.1 4.5,8.3 6.84,12.41 -4.58,0.04 -9.15,0.02 -13.72,0.1 z"
       id="path9"
       style="fill:#ffffff"
       inkscape:connector-curvature="0" />
    <path
       d="m 417.17,262.35 c 2.15,-4.24 4.36,-8.45 6.86,-12.5 2.23,4.16 4.5,8.29 6.75,12.44 -4.54,0.06 -9.08,0.06 -13.61,0.06 z"
       id="path2872"
       style="fill:#ffffff"
       inkscape:connector-curvature="0" />
    <path
       d="m 931.53,266.19 c 2.87,3.86 4.82,8.28 7.14,12.48 -4.56,-0.01 -9.11,0.01 -13.67,-0.01 2.09,-4.2 4.54,-8.21 6.53,-12.47 z"
       id="path2876"
       style="fill:#ffffff"
       inkscape:connector-curvature="0" />
    <path
       d="m 501.99,312.01 c 4.6,-0.03 9.21,-0.02 13.82,0.03 -2.33,4.12 -4.52,8.32 -6.89,12.43 -2.61,-3.98 -4.67,-8.28 -6.93,-12.46 z"
       id="path2878"
       style="fill:#ffffff"
       inkscape:connector-curvature="0" />
    <path
       d="m 468.63,508 c 4.6,-0.01 9.21,-0.01 13.81,0.01 -2.26,4.26 -4.64,8.46 -6.83,12.76 -2.5,-4.16 -4.72,-8.48 -6.98,-12.77 z"
       id="path2874"
       style="fill:#ffffff"
       inkscape:connector-curvature="0" />
    <path
       d="m 1147.93,617.97 c 0.64,-2.64 1.39,-6.72 4.9,-6.62 3.39,0.12 4.21,3.93 4.6,6.63 -3.18,0.02 -6.34,0.02 -9.5,-0.01 z"
       id="path2868"
       style="fill:#ffffff"
       inkscape:connector-curvature="0" />
    <path
       d="m 211.59,612.76 c 2.65,4 4.78,8.29 6.99,12.54 -4.58,0.05 -9.15,0.07 -13.72,-0.03 2.27,-4.16 4.55,-8.31 6.73,-12.51 z"
       id="path2870"
       style="fill:#ffffff"
       inkscape:connector-curvature="0" />
  </g>
  <g
     id="#77a2d9ff"
     transform="matrix(0.68476978,0,0,0.68476978,3.1159791,14.988138)">
    <path
       d="m 222.30361,122.24424 c 66.36,0.09 132.72,0.02 199.09,0.04 -33.02,60.99 -66.46,121.75 -99.44,182.75 -11.77,-20.59 -22.73,-41.64 -34.22,-62.4 -20.26,-37.11 -40.45,-74.26 -60.72,-111.37 -1.67,-2.95 -3.29,-5.94 -4.71,-9.02 z"
       id="path19"
       style="fill:#77a2d9"
       inkscape:export-filename="F:\!Develop\html5\challenge\img\path19.png"
       inkscape:export-xdpi="95"
       inkscape:export-ydpi="95"
       inkscape:connector-curvature="0" />
    <path
       d="m 434.34361,122.23424 c 66.39,0.1 132.77,0.06 199.16,0.02 -33,61.03 -66.34,121.88 -99.54,182.8 -33.3,-60.89 -66.55,-121.81 -99.62,-182.82 z"
       id="path21"
       style="fill:#77a2d9"
       inkscape:export-filename="F:\!Develop\html5\challenge\img\path21.png"
       inkscape:export-xdpi="95"
       inkscape:export-ydpi="95"
       inkscape:connector-curvature="0" />
    <path
       d="m 427.65361,126.52424 c 7.16,11.75 13.28,24.12 20.02,36.11 26.63,48.85 53.28,97.69 79.87,146.56 -66.43,0.18 -132.86,0.09 -199.29,0.05 32.95,-61.01 66.38,-121.75 99.4,-182.72 m 25.67,142.15 c 4.44,-0.07 8.88,-0.06 13.32,-0.06 -1.74,-4.36 -4.34,-8.29 -6.46,-12.47 -2.55,4.03 -4.77,8.25 -6.86,12.53 m 23.18,0.01 c 4.57,-0.08 9.14,-0.06 13.72,-0.1 -2.34,-4.11 -4.5,-8.31 -6.84,-12.41 -2.5,4.05 -4.65,8.3 -6.88,12.51 m -69.94,10.62 c 4.53,0 9.07,0 13.61,-0.06 -2.25,-4.15 -4.52,-8.28 -6.75,-12.44 -2.5,4.05 -4.71,8.26 -6.86,12.5 z"
       id="path20"
       style="fill:#77a2d9"
       inkscape:export-filename="F:\!Develop\html5\challenge\img\path20.png"
       inkscape:export-xdpi="95"
       inkscape:export-ydpi="95"
       inkscape:connector-curvature="0" />
    <path
       d="m 814.91361,194.60424 c 12.48,-22.69 24.66,-45.55 37.31,-68.14 33.26,60.88 66.48,121.77 99.58,182.74 -66.39,0.19 -132.79,0.03 -199.18,0.09 20.41,-38.41 41.62,-76.41 62.29,-114.69 m 81.33,68.05 c 4.46,-0.04 8.92,-0.03 13.38,-0.03 -1.78,-4.46 -4.49,-8.44 -6.58,-12.74 -2.34,4.22 -4.77,8.39 -6.8,12.77 m 24.68,20.49 c -1.99,4.26 -4.44,8.27 -6.53,12.47 4.56,0.02 9.11,0 13.67,0.01 -2.32,-4.2 -4.27,-8.62 -7.14,-12.48 z"
       id="path22"
       style="fill:#77a2d9"
       inkscape:export-filename="F:\!Develop\html5\challenge\img\path22.png"
       inkscape:export-xdpi="95"
       inkscape:export-ydpi="95"
       inkscape:connector-curvature="0" />
    <path
       d="m 1045.3937,161.00424 c 6.37,-11.48 12.4,-23.15 18.99,-34.51 21.59,39.31 42.93,78.76 64.46,118.1 11.6,21.6 23.63,42.97 35.07,64.65 -66.42,0.09 -132.85,0.04 -199.28009,0.02 26.84,-49.47 53.86019,-98.83 80.76009,-148.26 z"
       id="path23"
       style="fill:#77a2d9"
       inkscape:export-filename="F:\!Develop\html5\challenge\img\path23.png"
       inkscape:export-xdpi="95"
       inkscape:export-ydpi="95"
       inkscape:connector-curvature="0" />
    <path
       d="m 116.12361,316.95424 c 66.38,0.04 132.75,-0.08 199.12,0.06 -32.96,60.92 -66.37,121.6 -99.34,182.52 -5.84,-9.38 -10.68,-19.36 -16.12,-28.98 -27.86,-51.22 -55.85,-102.36 -83.66,-153.6 z"
       id="path01"
       style="fill:#77a2d9"
       inkscape:export-filename="F:\!Develop\html5\challenge\img\path01.png"
       inkscape:export-xdpi="95"
       inkscape:export-ydpi="95"
       inkscape:connector-curvature="0" />
    <path
       d="m 328.25361,316.95424 c 66.41,0 132.83,0 199.25,0 -30.42,55.92 -60.94,111.78 -91.38,167.68 -2.88,4.91 -5.16,10.16 -8.41,14.85 -33.13,-60.86 -66.34,-121.67 -99.46,-182.53 m 163.13,12.01 c 2.26,4.18 4.32,8.48 6.93,12.46 2.37,-4.11 4.56,-8.31 6.89,-12.43 -4.61,-0.05 -9.22,-0.06 -13.82,-0.03 z"
       id="path03"
       style="fill:#77a2d9"
       inkscape:export-filename="F:\!Develop\html5\challenge\img\path03.png"
       inkscape:export-xdpi="95"
       inkscape:export-ydpi="95"
       inkscape:connector-curvature="0" />
    <path
       d="m 540.35361,316.96424 c 66.4,-0.02 132.8,-0.03 199.21,0.01 -30.45,56.21 -61.16,112.27 -91.7,168.42 -2.71,4.68 -4.93,9.65 -8.01,14.1 -33.13,-60.86 -66.29,-121.71 -99.5,-182.53 z"
       id="path05"
       style="fill:#77a2d9"
       inkscape:export-filename="F:\!Develop\html5\challenge\img\path05.png"
       inkscape:export-xdpi="95"
       inkscape:export-ydpi="95"
       inkscape:connector-curvature="0" />
    <path
       d="m 752.53361,317.02424 c 66.39,-0.15 132.79,-0.04 199.18,-0.06 -31.87,58.86 -64.06,117.55 -96.02,176.37 -1.06,2.11 -2.24,4.17 -3.77,5.99 -33.11,-60.77 -66.22,-121.56 -99.39,-182.3 z"
       id="path07"
       style="fill:#77a2d9"
       inkscape:export-filename="F:\!Develop\html5\challenge\img\path07.png"
       inkscape:export-xdpi="95"
       inkscape:export-ydpi="95"
       inkscape:connector-curvature="0" />
    <path
       d="m 964.72361,316.96424 c 66.38009,-0.01 132.77009,-0.04 199.16009,0.02 -19.92,36.85 -40.14,73.55 -60.1,110.38 -13.18,23.98 -26.07,48.13 -39.37,72.04 -10.14,-17.5 -19.45,-35.48 -29.26,-53.17 -23.4599,-43.1 -47.01009,-86.15 -70.43009,-129.27 z"
       id="path09"
       style="fill:#77a2d9"
       inkscape:export-filename="F:\!Develop\html5\challenge\img\path09.png"
       inkscape:export-xdpi="95"
       inkscape:export-ydpi="95"
       inkscape:connector-curvature="0" />
    <path
       d="m 321.76361,320.97424 c 33.41,60.91 66.5,122 99.81,182.96 -66.48,0.02 -132.96,0.02 -199.45,0.01 33.04,-61.09 66.42,-121.99 99.64,-182.97 z"
       id="path02"
       style="fill:#77a2d9"
       inkscape:export-filename="F:\!Develop\html5\challenge\img\path02.png"
       inkscape:export-xdpi="95"
       inkscape:export-ydpi="95"
       inkscape:connector-curvature="0" />
    <path
       d="m 533.94361,320.95424 c 33.29,60.97 66.55,121.96 99.72,182.99 -66.49,-0.01 -132.97,0.04 -199.46,-0.02 33.2,-61.02 66.44,-122.01 99.74,-182.97 z"
       id="path04"
       style="fill:#77a2d9"
       inkscape:export-filename="F:\!Develop\html5\challenge\img\path04.png"
       inkscape:export-xdpi="95"
       inkscape:export-ydpi="95"
       inkscape:connector-curvature="0" />
    <path
       d="m 739.14361,333.62424 c 2.39,-4.17 4.37,-8.56 7.1,-12.52 33.15,60.97 66.42,121.88 99.61,182.84 -52.14,0.01 -104.27,0 -156.4,0 -14.35,-0.13 -28.72,0.28 -43.06,-0.21 30.98,-56.67 61.83,-113.41 92.75,-170.11 z"
       id="path06"
       style="fill:#77a2d9"
       inkscape:export-filename="F:\!Develop\html5\challenge\img\path06.png"
       inkscape:export-xdpi="95"
       inkscape:export-ydpi="95"
       inkscape:connector-curvature="0" />
    <path
       d="m 911.01361,407.52424 c 15.81,-28.77 31.27,-57.73 47.24,-86.41 33.42,60.84 66.54009,121.85 99.70009,182.83 -66.47009,-0.03 -132.95009,0.08 -199.42009,-0.05 17.43,-32.16 35.03,-64.23 52.48,-96.37 z"
       id="path08"
       style="fill:#77a2d9"
       inkscape:export-filename="F:\!Develop\html5\challenge\img\path08.png"
       inkscape:export-xdpi="95"
       inkscape:export-ydpi="95"
       inkscape:connector-curvature="0" />
    <path
       d="m 1132.2137,390.93424 c 11.48,-20.79 22.5,-41.85 34.27,-62.46 0.57,25.48 0.08,51 0.24,76.5 0,32.99 0.01,65.99 0,98.98 -32.05,-0.02 -64.1,0.01 -96.14,-0.01 20.6,-37.64 41.07,-75.35 61.63,-113.01 z"
       id="path10"
       style="fill:#77a2d9"
       inkscape:export-filename="F:\!Develop\html5\challenge\img\path10.png"
       inkscape:export-xdpi="95"
       inkscape:export-ydpi="95"
       inkscape:connector-curvature="0" />
    <path
       d="m 19.783613,511.53424 c 63.11,0.21 126.229997,0.01 189.339997,0.1 -15.75,29.4 -31.94,58.58 -47.76,87.95 -46.17,-27.59 -91.979997,-55.78 -138.069997,-83.5 -1.68,-1.11 -4.29,-2.04 -3.51,-4.55 z"
       id="path11"
       style="fill:#77a2d9"
       inkscape:export-filename="F:\!Develop\html5\challenge\img\path11.png"
       inkscape:export-xdpi="95"
       inkscape:export-ydpi="95"
       inkscape:connector-curvature="0" />
    <path
       d="m 229.82361,511.73424 c 61.23,-0.2 122.46,-0.16 183.68,-0.02 -1.17,0.98 -2.33,1.99 -3.63,2.79 -29.48,18.21 -58.73,36.78 -88.24,54.93 -18.53,-11.75 -37.19,-23.3 -55.8,-34.93 -11.97,-7.63 -24.27,-14.79 -36.01,-22.77 z"
       id="path14"
       style="fill:#77a2d9"
       inkscape:export-filename="F:\!Develop\html5\challenge\img\path14.png"
       inkscape:export-xdpi="95"
       inkscape:export-ydpi="95"
       inkscape:connector-curvature="0" />
    <path
       d="m 434.52361,511.59424 c 66.33,0.1 132.67,-0.06 198.99,0.08 -33.12,60.86 -66.39,121.65 -99.43,182.55 -9.06,-15.72 -17.44,-31.83 -26.21,-47.72 -22.26,-40.75 -44.44,-81.53 -66.68,-122.29 -2.22,-4.22 -4.74,-8.27 -6.67,-12.62 m 23.5,13.36 c 2.26,4.29 4.48,8.61 6.98,12.77 2.19,-4.3 4.57,-8.5 6.83,-12.76 -4.6,-0.02 -9.21,-0.02 -13.81,-0.01 z"
       id="path16"
       style="fill:#77a2d9"
       inkscape:export-filename="F:\!Develop\html5\challenge\img\path16.png"
       inkscape:export-xdpi="95"
       inkscape:export-ydpi="95"
       inkscape:connector-curvature="0" />
    <path
       d="m 646.62361,511.65424 c 66.34,-0.06 132.68,-0.04 199.03,-0.01 -33.12,60.88 -66.34,121.71 -99.48,182.58 -16.9,-30.27 -33.21,-60.87 -49.9,-91.26 -16.53,-30.45 -33.27,-60.79 -49.65,-91.31 z"
       id="path17"
       style="fill:#77a2d9"
       inkscape:export-filename="F:\!Develop\html5\challenge\img\path17.png"
       inkscape:export-xdpi="95"
       inkscape:export-ydpi="95"
       inkscape:connector-curvature="0" />
    <path
       d="m 206.94361,531.54424 c 3.07,-5.24 5.49,-10.86 8.99,-15.82 19.26,35.82 38.93,71.42 58.31,107.18 13.6,25.13 27.57,50.08 40.89,75.36 -66.33,0.02 -132.66,0.07 -198.99,-0.02 30.2,-55.61 60.57,-111.12 90.8,-166.7 m -5.96,98.17 c -2.18,4.2 -4.46,8.35 -6.73,12.51 4.57,0.1 9.14,0.08 13.72,0.03 -2.21,-4.25 -4.34,-8.54 -6.99,-12.54 z"
       id="path12"
       style="fill:#77a2d9"
       inkscape:export-filename="F:\!Develop\html5\challenge\img\path12.png"
       inkscape:export-xdpi="95"
       inkscape:export-ydpi="95"
       inkscape:connector-curvature="0" />
    <path
       d="m 752.63361,698.26424 c 33.05,-60.94 66.26,-121.8 99.53,-182.61 24.83,45.12 49.31,90.44 74.03,135.63 8.48,15.65 17.11,31.23 25.46,46.95 -66.34,0.11 -132.68,0.04 -199.02,0.03 z"
       id="path18"
       style="fill:#77a2d9"
       inkscape:export-filename="F:\!Develop\html5\challenge\img\path18.png"
       inkscape:export-xdpi="95"
       inkscape:export-ydpi="95"
       inkscape:connector-curvature="0" />
    <path
       d="m 226.17361,518.77424 c 15.66,9.37 30.98,19.3 46.5,28.89 15.11,9.53 30.39,18.8 45.42,28.44 -0.11,36.99 0.04,73.99 -0.07,110.98 -20.1,-35.99 -39.49,-72.37 -59.35,-108.48 -10.79,-19.97 -21.79,-39.82 -32.5,-59.83 z"
       id="path13"
       style="fill:#77a2d9"
       inkscape:export-filename="F:\!Develop\html5\challenge\img\path13.png"
       inkscape:export-xdpi="95"
       inkscape:export-ydpi="95"
       inkscape:connector-curvature="0" />
    <path
       d="m 431.80361,522.91424 c 17.92,32.38 35.45,64.98 53.23,97.44 12.73,23.65 25.89,47.09 38.45,70.84 -30.65,-19.05 -61.27,-38.15 -91.79,-57.39 0.14,-36.97 -0.09,-73.93 0.11,-110.89 z"
       id="path15"
       style="fill:#77a2d9"
       inkscape:export-filename="F:\!Develop\html5\challenge\img\path15.png"
       inkscape:export-xdpi="95"
       inkscape:export-ydpi="95"
       inkscape:connector-curvature="0" />
    <path
       d="m 1071.9937,667.51424 c 3.11,-3.2 8.3,-3.08 12.12,-1.3 4.4,2.41 4.79,8.44 3.12,12.67 -2.79,6.83 -11.03,9.07 -14.04,15.74 5.06,0.02 10.13,-0.04 15.21,0.02 -0.02,1.42 -0.02,2.86 -0.01,4.3 -6.73,0.01 -13.46,0.02 -20.19,0 0.34,-2.49 0.53,-5.12 1.92,-7.29 2.92,-4.67 7.91,-7.41 11.46,-11.51 2,-2.41 3.28,-6.04 1.59,-8.95 -1.67,-2.81 -6.07,-3.08 -8.28,-0.81 -1.42,1.68 -1.77,3.92 -2.41,5.96 -1.33,-0.19 -2.65,-0.37 -3.95,-0.54 0.71,-2.91 1.13,-6.16 3.46,-8.29 z"
       id="path70"
       style="fill:#77a2d9"
       inkscape:connector-curvature="0" />
    <path
       d="m 1099.7537,665.43424 c 4.08,-1.27 9.06,0.1 11.48,3.75 2.91,4.3 3.32,9.7 3.2,14.75 -0.12,4.29 -1.01,8.83 -3.78,12.23 -3.17,3.83 -9.22,4.38 -13.35,1.9 -3.14,-2.04 -4.6,-5.74 -5.32,-9.26 -0.99,-5.45 -0.89,-11.23 1,-16.49 1.09,-3.13 3.46,-5.99 6.77,-6.88 m 0.98,4.01 c -3.52,1.63 -4.53,5.91 -4.91,9.42 -0.32,4.96 -0.41,10.65 2.93,14.71 2.05,2.63 6.29,2.61 8.44,0.11 2.19,-2.68 2.76,-6.29 2.9,-9.65 0.14,-4.18 -0.02,-8.69 -2.38,-12.31 -1.38,-2.27 -4.53,-3.53 -6.98,-2.28 z"
       id="path72"
       style="fill:#77a2d9"
       inkscape:connector-curvature="0" />
    <path
       d="m 1123.6737,665.68424 c 1.14,0.02 2.3,0.06 3.48,0.11 -0.18,11.02 -0.09,22.05 -0.05,33.08 -1.36,0.03 -2.71,0.07 -4.03,0.12 -0.01,-8.98 -0.05,-17.95 0.02,-26.92 -1.87,0.94 -3.79,1.76 -5.73,2.5 0.03,-1.4 0.08,-2.79 0.16,-4.18 2.53,-0.86 4.67,-2.48 6.15,-4.71 z"
       id="path74"
       style="fill:#77a2d9"
       inkscape:connector-curvature="0" />
    <path
       d="m 1131.6837,670.56424 c 2.62,-1.06 4.93,-2.72 6.67,-4.96 0.76,0.01 2.28,0.03 3.04,0.04 0,11.1 0,22.21 0,33.31 -1.35,-0.01 -2.68,-0.01 -4,0 0,-8.98 -0.03,-17.96 0.02,-26.94 -1.8,0.92 -3.62,1.81 -5.43,2.69 -0.13,-1.39 -0.22,-2.77 -0.3,-4.14 z"
       id="path76"
       style="fill:#77a2d9"
       inkscape:connector-curvature="0" />
  </g>
  <g
     id="#4076a1ff"
     transform="matrix(0.68476978,0,0,0.68476978,-4.1469552,26.59789)"
     inkscape:export-filename="F:\!Develop\html5\challenge\img\#4076a1ff.png"
     inkscape:export-xdpi="95"
     inkscape:export-ydpi="95">
    <path
       d="m 1013.62,552.56 c 3.53,-4.49 10.82,-4.9 15.15,-1.36 2.46,2.05 3.36,5.28 3.99,8.3 -1.52,0.1 -3.03,0.2 -4.53,0.29 -0.15,-3.99 -4.05,-8 -8.19,-6.52 -4.07,1.8 -5.48,6.63 -5.64,10.72 -0.21,5.11 -0.18,11.1 3.82,14.89 2.99,2.3 7.25,1.45 10.45,-0.01 -0.09,-3.27 -0.08,-6.54 -0.02,-9.8 -2.73,-0.05 -5.45,-0.07 -8.15,-0.08 0.37,-1.18 -0.68,-4.07 1.46,-3.75 3.59,-0.14 7.19,0.02 10.79,0.02 -0.06,5.13 0.23,10.28 -0.07,15.41 -1.09,2.07 -3.64,2.73 -5.72,3.31 -4.01,0.71 -8.86,1.07 -12,-2.02 -4.22,-3.68 -5.09,-9.68 -5.02,-14.98 -0.16,-4.99 0.52,-10.36 3.68,-14.42 z"
       id="path79"
       style="fill:#4076a1"
       inkscape:connector-curvature="0" />
    <path
       d="m 1102.74,549.1 c 1.32,0.06 2.66,0.13 4.02,0.21 0.04,11.47 0.04,22.94 0,34.41 -1.38,0.03 -2.75,0.06 -4.11,0.1 -0.02,-11.57 -0.18,-23.15 0.09,-34.72 z"
       id="path81"
       style="fill:#4076a1"
       inkscape:connector-curvature="0" />
    <path
       d="m 1094.27,560.01 c 1.82,-0.82 3.67,-1.59 5.58,-2.2 0.09,1.52 0.17,3.04 0.25,4.58 -0.79,-0.08 -2.36,-0.26 -3.15,-0.34 0.91,4.03 1.59,9 -1.77,12.15 -2.53,2.88 -6.65,2.03 -10.02,2.03 -0.41,0.43 -1.24,1.29 -1.65,1.73 4.05,1.66 8.59,1.18 12.7,2.63 2.93,0.87 4.3,4.56 3.09,7.27 -0.88,2.7 -3.79,3.96 -6.36,4.45 -4.85,1.02 -10.55,0.53 -14.07,-3.32 -0.25,-2.86 0.26,-5.66 2.78,-7.35 -2.04,-2.31 -1.62,-5.38 0.91,-7.11 -2.88,-3.8 -3.39,-9.44 -0.38,-13.31 3.03,-3.29 8.35,-3.28 12.09,-1.21 m -7.09,2.33 c -4.88,1.75 -3.65,10.95 1.83,10.67 3.13,0.22 5.08,-3.13 4.65,-5.95 0.15,-3.22 -3.37,-6.22 -6.48,-4.72 m -4,25.31 c 2.4,2.05 5.89,1.66 8.82,1.35 2.33,-0.17 4.39,-2.51 3.05,-4.77 -3.38,-0.73 -6.81,-1.14 -10.23,-1.39 -1.16,1.29 -2.88,2.96 -1.64,4.81 z"
       id="path83"
       style="fill:#4076a1"
       inkscape:connector-curvature="0" />
    <path
       d="m 1042.27,559.27 c 4.35,-1.88 10.14,-0.02 11.92,4.55 2.16,5.47 2.17,12.22 -1.16,17.24 -3.9,5.48 -13.7,3.92 -15.56,-2.63 -2.16,-6.3 -1.98,-15.81 4.8,-19.16 m 2.57,3.46 c -2.68,0.83 -3.76,3.81 -4.13,6.33 -0.76,4.46 0.38,10.31 5.3,11.81 2.54,-0.98 4.65,-3.07 5.01,-5.86 0.35,-3.54 0.72,-7.6 -1.59,-10.59 -0.97,-1.39 -2.94,-2.44 -4.59,-1.69 z"
       id="path85"
       style="fill:#4076a1"
       inkscape:connector-curvature="0" />
    <path
       d="m 1063.4,559.52 c 4.24,-2.12 10.19,-0.7 12.25,3.8 2.61,5.65 2.5,12.98 -1.2,18.13 -4.07,5.09 -13.24,3.31 -15.15,-2.93 -2.02,-6.21 -2.12,-15.15 4.1,-19 m 1.96,3.74 c -3.66,3.11 -3.45,8.65 -2.36,12.9 0.64,2.83 3.87,5.6 6.72,3.7 3.93,-2.86 3.88,-8.57 2.8,-12.82 -0.75,-2.94 -4.24,-6.06 -7.16,-3.78 z"
       id="path87"
       style="fill:#4076a1"
       inkscape:connector-curvature="0" />
    <path
       d="m 1112.67,561.74 c 3.03,-4.34 10.48,-4.22 13.33,0.23 2.13,3.2 2.24,7.18 2.32,10.89 -4.69,-0.13 -9.39,-0.09 -14.07,-0.05 0.61,2.78 0.96,6.73 4.29,7.59 3.08,1.06 5.28,-2.33 5.76,-4.94 1.31,0.05 2.63,0.11 3.97,0.19 -0.39,1.94 -0.73,4.01 -1.99,5.62 -2.36,3.28 -7.18,3.9 -10.7,2.33 -3.6,-1.69 -4.73,-5.91 -5.22,-9.51 -0.4,-4.18 -0.1,-8.78 2.31,-12.35 m 1.8,7.48 c 3.24,0 6.48,0 9.73,-0.03 -0.38,-2.84 -1.58,-6.74 -5.04,-6.82 -3.32,0.39 -4.38,4.04 -4.69,6.85 z"
       id="path89"
       style="fill:#4076a1"
       inkscape:connector-curvature="0" />
    <path
       d="m 1094.2,598.01 c 1.39,-0.02 2.78,-0.03 4.19,-0.03 -0.03,11.61 0.07,23.23 -0.06,34.84 -1.37,-0.04 -2.73,-0.07 -4.08,-0.09 -0.08,-11.58 0.01,-23.15 -0.05,-34.72 z"
       id="path91"
       style="fill:#4076a1"
       inkscape:connector-curvature="0" />
    <path
       d="m 1011,598.61 c 5.8,0.54 12.83,-1.75 17.55,2.71 4.52,5.05 3.97,12.33 3.77,18.63 -0.23,4.82 -2.31,10.42 -7.28,12.08 -4.56,1.32 -9.38,0.58 -14.04,0.75 0,-11.39 0,-22.78 0,-34.17 m 4,4.16 c 0,8.48 -0.01,16.96 0.01,25.44 2.62,0 5.27,0.18 7.9,-0.16 3.93,-0.97 4.96,-5.56 5.23,-9.05 0.15,-4.63 0.57,-9.87 -2.3,-13.81 -2.51,-3.42 -7.22,-2.2 -10.84,-2.42 z"
       id="path93"
       style="fill:#4076a1"
       inkscape:connector-curvature="0" />
    <path
       d="m 1037.24,611.34 c 2.33,-4.85 10.16,-5.16 13.12,-0.79 2.34,3.05 2.32,7.1 2.56,10.76 -4.57,0.13 -9.15,0.05 -13.71,0.13 0.27,3.61 1.51,7.63 5.57,8.42 2.5,-1.13 3.51,-3.67 4.9,-5.84 0.74,0.19 2.23,0.55 2.97,0.74 0.08,3.85 -2.68,7.93 -6.69,8.4 -3.47,0.68 -7.48,-0.79 -8.93,-4.18 -2.38,-5.5 -2.57,-12.24 0.21,-17.64 m 1.99,6.64 c 3.25,0.04 6.52,0.02 9.78,-0.19 -0.84,-2.57 -1.66,-6.49 -5.07,-6.44 -3.42,0.03 -4.01,4.09 -4.71,6.63 z"
       id="path95"
       style="fill:#4076a1"
       inkscape:connector-curvature="0" />
    <path
       d="m 1053.84,608.11 c 1.42,0.15 3,-0.12 4.39,0.43 1.81,6.12 2.97,12.42 5.01,18.48 1.66,-6.28 3.22,-12.58 4.95,-18.84 1.41,0 2.83,0 4.26,0.02 -2.39,8.11 -4.58,16.29 -7.14,24.34 -1.44,0.25 -2.9,0.27 -4.31,0.39 -2.48,-8.25 -5.03,-16.48 -7.16,-24.82 z"
       id="path97"
       style="fill:#4076a1"
       inkscape:connector-curvature="0" />
    <path
       d="m 1074.85,612.13 c 1.89,-5.15 9.68,-6.23 13.12,-2.11 2.68,3.09 2.84,7.45 2.87,11.35 -4.57,0.04 -9.14,-0.04 -13.7,0.12 0.64,3.12 1.17,7.42 5.06,8.08 3.08,-0.01 4.22,-3.16 5.12,-5.54 1.25,0.28 2.52,0.58 3.8,0.89 -0.75,1.91 -1.27,3.98 -2.51,5.65 -3.45,4.2 -11.25,3.51 -13.54,-1.57 -2.34,-5.28 -2.39,-11.53 -0.22,-16.87 m 5.09,-0.15 c -1.91,1.38 -2,3.93 -2.6,6.01 3.21,0.02 6.44,0.01 9.66,-0.17 -0.65,-1.98 -1.39,-3.92 -2.18,-5.83 -1.59,-0.26 -3.46,-1.18 -4.88,-0.01 z"
       id="path99"
       style="fill:#4076a1"
       inkscape:connector-curvature="0" />
    <path
       d="m 1107.24,608.24 c 2.34,-0.97 5.07,-0.85 7.48,-0.11 3.78,1.67 5.43,6.03 5.65,9.91 0.22,4.24 0.11,9.07 -2.88,12.43 -3.14,3.8 -9.81,3.79 -12.83,-0.16 -2.98,-3.37 -2.86,-8.09 -2.69,-12.29 -0.03,-3.86 1.88,-7.82 5.27,-9.78 m 3.26,3.18 c -3.35,0.79 -4.35,4.6 -4.61,7.58 -0.26,3.48 0.32,7.62 3.32,9.86 2.01,0.99 4.63,0.1 5.63,-1.9 1.77,-3.31 1.69,-7.35 0.95,-10.93 -0.68,-2.3 -2.55,-5.12 -5.29,-4.61 z"
       id="path101"
       style="fill:#4076a1"
       inkscape:connector-curvature="0" />
    <path
       d="m 1124,608.21 c 1.25,-0.02 2.51,-0.03 3.79,-0.04 0.12,0.41 0.35,1.23 0.46,1.64 2.15,-2.28 5.61,-2.84 8.49,-1.71 4.34,2.71 4.73,8.36 4.69,12.98 -0.13,4.18 -0.77,9.41 -4.89,11.6 -2.95,1.47 -6.16,0.13 -8.55,-1.73 0.02,3.28 0.01,6.57 0,9.86 -1.34,-0.02 -2.67,-0.03 -3.99,-0.02 0.01,-10.86 -0.01,-21.72 0,-32.58 m 4.25,6.09 c -0.52,3.88 -0.13,7.82 -0.25,11.72 1.63,1.87 3.92,4.22 6.65,2.79 3.25,-2.97 2.65,-7.89 2.42,-11.85 0.01,-2.73 -1.99,-4.65 -4.17,-5.91 -1.66,0.9 -3.71,1.47 -4.65,3.25 z"
       id="path103"
       style="fill:#4076a1"
       inkscape:connector-curvature="0" />
    <path
       d="m 1145.74,611.7 c 2.22,-4.93 9.83,-5.65 13.12,-1.48 2.44,3.16 2.56,7.33 2.61,11.16 -4.53,0.02 -9.05,0.02 -13.56,-0.02 0.42,3.21 1.08,7.82 5.14,8.16 2.93,-0.04 3.97,-2.95 4.66,-5.28 1.31,0.14 2.63,0.3 3.97,0.48 -0.7,2.15 -1.12,4.55 -2.74,6.25 -3.61,3.77 -10.92,2.96 -13.17,-1.93 -2.44,-5.39 -2.46,-11.95 -0.03,-17.34 m 2.19,6.27 c 3.16,0.03 6.32,0.03 9.5,0.01 -0.39,-2.7 -1.21,-6.51 -4.6,-6.63 -3.51,-0.1 -4.26,3.98 -4.9,6.62 z"
       id="path105"
       style="fill:#4076a1"
       inkscape:connector-curvature="0" />
    <path
       d="m 1165.01,608.12 c 1.64,0.2 4.16,-0.64 4.28,1.82 1.35,-1.67 3.26,-2.5 5.42,-2.55 0.03,1.54 0.07,3.1 0.12,4.66 -2.92,-0.5 -6.03,1.83 -5.78,4.9 -0.11,5.27 -0.02,10.55 -0.05,15.84 -1.35,-0.01 -2.68,-0.01 -4,0 0,-8.22 -0.02,-16.44 0.01,-24.67 z"
       id="path107"
       style="fill:#4076a1"
       inkscape:connector-curvature="0" />
    <path
       d="m 1011,647.22 c 5.76,0.45 13.21,-1.77 17.36,3.53 3.8,5.48 3.77,12.74 2.99,19.12 -0.44,4.54 -2.62,9.74 -7.41,11.08 -4.26,0.87 -8.64,0.3 -12.94,0.44 0,-11.39 0,-22.78 0,-34.17 m 4.09,4.06 c -0.16,8.66 -0.07,17.32 -0.08,25.97 3.73,-0.12 8.81,0.74 10.81,-3.33 2.49,-5.88 2.4,-12.93 0.16,-18.87 -1.9,-4.27 -7.07,-3.65 -10.89,-3.77 z"
       id="path109"
       style="fill:#4076a1"
       inkscape:connector-curvature="0" />
    <path
       d="m 1034.43,663.5 c 0.18,-7.75 12.27,-10.27 15.32,-3.3 1.5,7 0.02,14.28 0.98,21.37 -1.81,0.25 -3.28,-0.27 -4.39,-1.54 -1.9,1.16 -4.02,2.46 -6.34,1.92 -7.27,-0.86 -7.98,-13.12 -1.26,-15.33 2.57,-1.11 5.4,-0.46 8.08,-0.17 -0.3,-1.71 -0.18,-3.56 -1.06,-5.1 -1.11,-1.64 -3.26,-1.22 -4.91,-1.5 -0.93,1.25 -1.8,2.54 -2.59,3.88 -1.29,-0.07 -2.57,-0.15 -3.83,-0.23 m 4.16,8.01 c -2.15,3.17 1.54,8.43 5.24,6.31 2.97,-1.33 2.93,-4.84 2.86,-7.6 -2.64,-0.79 -6.47,-1.64 -8.1,1.29 z"
       id="path111"
       style="fill:#4076a1"
       inkscape:connector-curvature="0" />
    <path
       d="m 1052.05,656.96 c 1.36,-0.02 2.73,0.01 4.12,0.08 2.16,5.8 3.18,11.99 5.07,17.9 1.1,-6.02 2.61,-11.95 3.82,-17.94 1.36,-0.01 2.73,-0.01 4.12,0 -1.66,7.87 -3.79,15.63 -5.55,23.47 -0.81,2.95 -1.58,6.19 -3.88,8.38 -1.91,1.53 -4.5,1.07 -6.75,1.23 -0.02,-1.41 -0.02,-2.81 -0.02,-4.2 1.59,-0.21 3.81,0.71 4.79,-1.04 1.49,-1.55 1.43,-3.79 0.78,-5.69 -2.15,-7.41 -4.34,-14.8 -6.5,-22.19 z"
       id="path113"
       style="fill:#4076a1"
       inkscape:connector-curvature="0" />
  </g>
</svg>
